# xmcd CD database file
#
# Track frame offsets:
#	150
#	34036
#	57863
#	87182
#	102392
#	126104
#	148994
#	174094
#	194398
#
# Disc length: 2855 seconds
#
# Revision: 0
# Processed by: cddbd v1.5.1PL2 Copyright (c) Steve Scherf et al.
# Submitted via: CDex 1.51
#
DISCID=770b2509
DTITLE=Ron Escheté - Homeward Bound 
DYEAR=2003
DGENRE=Jazz
TTITLE0=Ticket To Ride
TTITLE1=Skating In Central Park
TTITLE2=Mean Eugene
TTITLE3=Your Samba
TTITLE4=The Peacocks
TTITLE5=It's The Talk Of The Town
TTITLE6=Namely You
TTITLE7=Poor Butterfly
TTITLE8=Homeward Bound 
EXTD=YEAR: 2003
EXTT0=
EXTT1=
EXTT2=
EXTT3=
EXTT4=
EXTT5=
EXTT6=
EXTT7=
EXTT8=
PLAYORDER=
